<?xml version="1.0" encoding="utf-8"?>
<!-- Generator: Adobe Illustrator 24.1.2, SVG Export Plug-In . SVG Version: 6.00 Build 0)  -->
<svg version="1.1" id="Layer_1" xmlns="http://www.w3.org/2000/svg" xmlns:xlink="http://www.w3.org/1999/xlink" x="0px" y="0px"
	 viewBox="0 0 250.86 105.322" style="enable-background:new 0 0 250.86 105.322;" xml:space="preserve">
<g>
	<g>
		<path d="M0.017,58.71H8.59v27.689H0.017V58.71z"/>
		<path d="M13.703,58.71h7.988l10.423,15.318V58.71h8.065v27.689h-8.065L21.747,71.194v15.204h-8.045V58.71z"/>
		<path d="M43.287,77.237l8.139-0.51c0.177,1.322,0.535,2.33,1.077,3.023c0.882,1.12,2.141,1.681,3.776,1.681
			c1.222,0,2.162-0.286,2.823-0.859c0.661-0.573,0.992-1.237,0.992-1.993c0-0.718-0.315-1.358-0.944-1.926
			c-0.631-0.566-2.09-1.102-4.381-1.605c-3.752-0.844-6.428-1.964-8.026-3.361c-1.611-1.397-2.417-3.18-2.417-5.346
			c0-1.422,0.412-2.767,1.236-4.032c0.824-1.266,2.064-2.26,3.721-2.984c1.655-0.724,3.925-1.086,6.808-1.086
			c3.538,0,6.234,0.659,8.092,1.975c1.856,1.315,2.963,3.408,3.314,6.279l-8.063,0.473c-0.214-1.247-0.664-2.153-1.35-2.72
			c-0.688-0.567-1.635-0.851-2.842-0.851c-0.996,0-1.745,0.211-2.248,0.632c-0.504,0.423-0.756,0.936-0.756,1.541
			c0,0.44,0.208,0.837,0.623,1.189c0.403,0.365,1.36,0.705,2.871,1.02c3.739,0.806,6.417,1.622,8.035,2.445
			c1.617,0.825,2.795,1.849,3.531,3.069c0.736,1.222,1.105,2.589,1.105,4.099c0,1.776-0.491,3.412-1.474,4.91
			c-0.98,1.499-2.354,2.635-4.117,3.41c-1.762,0.774-3.982,1.161-6.665,1.161c-4.708,0-7.969-0.906-9.782-2.72
			C44.552,82.337,43.527,80.033,43.287,77.237z"/>
		<path d="M69.681,58.71h26.003v6.837h-8.725v20.852h-8.554V65.547h-8.725V58.71z"/>
		<path d="M112.868,81.827h-9.711l-1.351,4.571h-8.733l10.403-27.689h9.331l10.403,27.689h-8.957L112.868,81.827z M111.094,75.841
			l-3.058-9.954l-3.022,9.954H111.094z"/>
		<path d="M124.847,58.71h8.556v20.869h13.351v6.819h-21.906V58.71z"/>
		<path d="M149.9,58.71h8.575v27.689H149.9V58.71z"/>
		<path d="M177.447,76.369v-5.761h13.218v11.805c-2.53,1.725-4.768,2.898-6.713,3.521c-1.946,0.623-4.253,0.936-6.921,0.936
			c-3.287,0-5.966-0.56-8.036-1.681c-2.07-1.12-3.676-2.789-4.815-5.005c-1.14-2.216-1.709-4.76-1.709-7.631
			c0-3.021,0.623-5.649,1.869-7.885c1.247-2.234,3.073-3.933,5.477-5.091c1.876-0.893,4.4-1.341,7.574-1.341
			c3.059,0,5.347,0.277,6.863,0.832c1.518,0.554,2.777,1.413,3.777,2.578c1.001,1.163,1.752,2.641,2.256,4.428l-8.252,1.474
			c-0.34-1.045-0.916-1.845-1.729-2.398c-0.812-0.554-1.848-0.831-3.105-0.831c-1.876,0-3.371,0.651-4.485,1.955
			c-1.115,1.303-1.671,3.364-1.671,6.185c0,2.997,0.563,5.138,1.689,6.423c1.127,1.283,2.697,1.926,4.713,1.926
			c0.955,0,1.868-0.139,2.736-0.416c0.869-0.276,1.863-0.749,2.985-1.416v-2.606H177.447z"/>
		<path d="M194.701,58.71h8.554v9.689h9.349V58.71h8.592v27.689h-8.592V75.197h-9.349v11.201h-8.554V58.71z"/>
		<path d="M223.852,58.71h26.002v6.837h-8.724v20.852h-8.556V65.547h-8.723V58.71z"/>
	</g>
	<g>
		<path d="M0,104.124l3.299-8.59h1.225l3.516,8.59H6.744l-1.002-2.602H2.15l-0.943,2.602H0z M2.479,100.596h2.912l-0.896-2.379
			c-0.273-0.723-0.477-1.316-0.609-1.781c-0.109,0.551-0.264,1.098-0.463,1.641L2.479,100.596z"/>
		<path d="M15.123,104.124v-0.914c-0.484,0.703-1.143,1.055-1.975,1.055c-0.367,0-0.71-0.07-1.028-0.211s-0.555-0.317-0.709-0.53
			s-0.263-0.474-0.325-0.782c-0.043-0.207-0.064-0.535-0.064-0.984v-3.855h1.055v3.451c0,0.551,0.021,0.922,0.064,1.113
			c0.066,0.277,0.207,0.495,0.422,0.653s0.48,0.237,0.797,0.237s0.613-0.081,0.891-0.243s0.474-0.383,0.589-0.662
			s0.173-0.685,0.173-1.216v-3.334h1.055v6.223H15.123z"/>
		<path d="M22.253,103.18l0.152,0.932c-0.297,0.063-0.563,0.094-0.797,0.094c-0.383,0-0.68-0.061-0.891-0.182
			s-0.359-0.28-0.445-0.478s-0.129-0.612-0.129-1.245v-3.58H19.37v-0.82h0.773V96.36l1.049-0.633v2.174h1.061v0.82h-1.061v3.639
			c0,0.301,0.019,0.494,0.056,0.58s0.098,0.154,0.182,0.205s0.204,0.076,0.36,0.076C21.907,103.221,22.062,103.208,22.253,103.18z"
			/>
		<path d="M25.516,104.124v-8.59h1.055v3.082c0.492-0.57,1.113-0.855,1.863-0.855c0.461,0,0.861,0.091,1.201,0.272
			s0.583,0.433,0.729,0.753s0.22,0.785,0.22,1.395v3.943H29.53v-3.943c0-0.527-0.114-0.911-0.343-1.151s-0.552-0.36-0.97-0.36
			c-0.313,0-0.606,0.081-0.882,0.243s-0.472,0.382-0.589,0.659s-0.176,0.66-0.176,1.148v3.404H25.516z"/>
		<path d="M34.03,101.012c0-1.152,0.32-2.006,0.961-2.561c0.535-0.461,1.188-0.691,1.957-0.691c0.855,0,1.555,0.28,2.098,0.841
			s0.814,1.335,0.814,2.323c0,0.801-0.12,1.431-0.36,1.89s-0.59,0.815-1.049,1.069s-0.96,0.381-1.503,0.381
			c-0.871,0-1.575-0.279-2.112-0.838S34.03,102.063,34.03,101.012z M35.114,101.012c0,0.797,0.174,1.394,0.521,1.79
			s0.785,0.595,1.313,0.595c0.523,0,0.959-0.199,1.307-0.598s0.521-1.006,0.521-1.822c0-0.77-0.175-1.353-0.524-1.749
			s-0.784-0.595-1.304-0.595c-0.527,0-0.965,0.197-1.313,0.592S35.114,100.215,35.114,101.012z"/>
		<path d="M43.316,104.124v-6.223h0.949v0.943c0.242-0.441,0.466-0.732,0.671-0.873s0.431-0.211,0.677-0.211
			c0.355,0,0.717,0.113,1.084,0.34l-0.363,0.979c-0.258-0.152-0.516-0.229-0.773-0.229c-0.23,0-0.438,0.069-0.621,0.208
			s-0.314,0.331-0.393,0.577c-0.117,0.375-0.176,0.785-0.176,1.23v3.258H43.316z"/>
		<path d="M49.562,96.747v-1.213h1.055v1.213H49.562z M49.562,104.124v-6.223h1.055v6.223H49.562z"/>
		<path d="M53.897,104.124v-0.855l3.961-4.547c-0.449,0.023-0.846,0.035-1.189,0.035h-2.537v-0.855h5.086v0.697l-3.369,3.949
			l-0.65,0.721c0.473-0.035,0.916-0.053,1.33-0.053h2.877v0.908H53.897z"/>
		<path d="M66.946,102.12l1.09,0.135c-0.172,0.637-0.49,1.131-0.955,1.482s-1.059,0.527-1.781,0.527c-0.91,0-1.632-0.28-2.165-0.841
			s-0.8-1.347-0.8-2.358c0-1.047,0.27-1.859,0.809-2.438s1.238-0.867,2.098-0.867c0.832,0,1.512,0.283,2.039,0.85
			s0.791,1.363,0.791,2.391c0,0.063-0.002,0.156-0.006,0.281h-4.641c0.039,0.684,0.232,1.207,0.58,1.57s0.781,0.545,1.301,0.545
			c0.387,0,0.717-0.102,0.99-0.305S66.786,102.565,66.946,102.12z M63.483,100.415h3.475c-0.047-0.523-0.18-0.916-0.398-1.178
			c-0.336-0.406-0.771-0.609-1.307-0.609c-0.484,0-0.892,0.162-1.222,0.486S63.518,99.872,63.483,100.415z"/>
		<path d="M75.629,104.124v-0.785c-0.395,0.617-0.975,0.926-1.74,0.926c-0.496,0-0.952-0.137-1.368-0.41s-0.738-0.655-0.967-1.146
			s-0.343-1.054-0.343-1.69c0-0.621,0.104-1.185,0.311-1.69s0.518-0.894,0.932-1.163s0.877-0.404,1.389-0.404
			c0.375,0,0.709,0.079,1.002,0.237s0.531,0.364,0.715,0.618v-3.082h1.049v8.59H75.629z M72.295,101.018
			c0,0.797,0.168,1.393,0.504,1.787s0.732,0.592,1.189,0.592c0.461,0,0.853-0.188,1.175-0.565s0.483-0.952,0.483-1.726
			c0-0.852-0.164-1.477-0.492-1.875s-0.732-0.598-1.213-0.598c-0.469,0-0.86,0.191-1.175,0.574S72.295,100.194,72.295,101.018z"/>
		<path d="M97.354,104.124v-8.59h6.211v1.014h-5.074v2.631h4.752v1.008h-4.752v2.924h5.273v1.014H97.354z"/>
		<path d="M107.408,104.124v-8.59h1.055v8.59H107.408z"/>
		<path d="M116.589,102.12l1.09,0.135c-0.172,0.637-0.49,1.131-0.955,1.482s-1.059,0.527-1.781,0.527
			c-0.91,0-1.632-0.28-2.165-0.841s-0.8-1.347-0.8-2.358c0-1.047,0.27-1.859,0.809-2.438s1.238-0.867,2.098-0.867
			c0.832,0,1.512,0.283,2.039,0.85s0.791,1.363,0.791,2.391c0,0.063-0.002,0.156-0.006,0.281h-4.641
			c0.039,0.684,0.232,1.207,0.58,1.57s0.781,0.545,1.301,0.545c0.387,0,0.717-0.102,0.99-0.305S116.429,102.565,116.589,102.12z
			 M113.126,100.415h3.475c-0.047-0.523-0.18-0.916-0.398-1.178c-0.336-0.406-0.771-0.609-1.307-0.609
			c-0.484,0-0.892,0.162-1.222,0.486S113.162,99.872,113.126,100.415z"/>
		<path d="M125.296,101.844l1.037,0.135c-0.113,0.715-0.403,1.274-0.87,1.679s-1.04,0.606-1.72,0.606
			c-0.852,0-1.536-0.278-2.054-0.835s-0.776-1.354-0.776-2.394c0-0.672,0.111-1.26,0.334-1.764s0.562-0.882,1.017-1.134
			s0.95-0.378,1.485-0.378c0.676,0,1.229,0.171,1.658,0.513s0.705,0.827,0.826,1.456l-1.025,0.158
			c-0.098-0.418-0.271-0.732-0.519-0.943s-0.548-0.316-0.899-0.316c-0.531,0-0.963,0.19-1.295,0.571s-0.498,0.983-0.498,1.808
			c0,0.836,0.16,1.443,0.48,1.822s0.738,0.568,1.254,0.568c0.414,0,0.76-0.127,1.037-0.381S125.222,102.372,125.296,101.844z"/>
		<path d="M131.77,103.18l0.152,0.932c-0.297,0.063-0.563,0.094-0.797,0.094c-0.383,0-0.68-0.061-0.891-0.182
			s-0.359-0.28-0.445-0.478s-0.129-0.612-0.129-1.245v-3.58h-0.773v-0.82h0.773V96.36l1.049-0.633v2.174h1.061v0.82h-1.061v3.639
			c0,0.301,0.019,0.494,0.056,0.58s0.098,0.154,0.182,0.205s0.204,0.076,0.36,0.076C131.424,103.221,131.579,103.208,131.77,103.18z
			"/>
		<path d="M135.021,104.124v-6.223h0.949v0.943c0.242-0.441,0.466-0.732,0.671-0.873s0.431-0.211,0.677-0.211
			c0.355,0,0.717,0.113,1.084,0.34l-0.363,0.979c-0.258-0.152-0.516-0.229-0.773-0.229c-0.23,0-0.438,0.069-0.621,0.208
			s-0.314,0.331-0.393,0.577c-0.117,0.375-0.176,0.785-0.176,1.23v3.258H135.021z"/>
		<path d="M141.268,96.747v-1.213h1.055v1.213H141.268z M141.268,104.124v-6.223h1.055v6.223H141.268z"/>
		<path d="M150.22,101.844l1.037,0.135c-0.113,0.715-0.403,1.274-0.87,1.679s-1.04,0.606-1.72,0.606
			c-0.852,0-1.536-0.278-2.054-0.835s-0.776-1.354-0.776-2.394c0-0.672,0.111-1.26,0.334-1.764s0.562-0.882,1.017-1.134
			s0.95-0.378,1.485-0.378c0.676,0,1.229,0.171,1.658,0.513s0.705,0.827,0.826,1.456l-1.025,0.158
			c-0.098-0.418-0.271-0.732-0.519-0.943s-0.548-0.316-0.899-0.316c-0.531,0-0.963,0.19-1.295,0.571s-0.498,0.983-0.498,1.808
			c0,0.836,0.16,1.443,0.48,1.822s0.738,0.568,1.254,0.568c0.414,0,0.76-0.127,1.037-0.381S150.146,102.372,150.22,101.844z"/>
		<path d="M158.452,103.356c-0.391,0.332-0.767,0.566-1.128,0.703s-0.749,0.205-1.163,0.205c-0.684,0-1.209-0.167-1.576-0.501
			s-0.551-0.761-0.551-1.28c0-0.305,0.069-0.583,0.208-0.835s0.32-0.454,0.545-0.606s0.478-0.268,0.759-0.346
			c0.207-0.055,0.52-0.107,0.938-0.158c0.852-0.102,1.479-0.223,1.881-0.363c0.004-0.145,0.006-0.236,0.006-0.275
			c0-0.43-0.1-0.732-0.299-0.908c-0.27-0.238-0.67-0.357-1.201-0.357c-0.496,0-0.862,0.087-1.099,0.261s-0.411,0.481-0.524,0.923
			l-1.031-0.141c0.094-0.441,0.248-0.798,0.463-1.069s0.525-0.48,0.932-0.627s0.877-0.22,1.412-0.22
			c0.531,0,0.963,0.063,1.295,0.188s0.576,0.282,0.732,0.472s0.266,0.429,0.328,0.718c0.035,0.18,0.053,0.504,0.053,0.973v1.406
			c0,0.98,0.022,1.601,0.067,1.86s0.134,0.509,0.267,0.747h-1.102C158.554,103.905,158.483,103.649,158.452,103.356z
			 M158.364,101.001c-0.383,0.156-0.957,0.289-1.723,0.398c-0.434,0.063-0.74,0.133-0.92,0.211s-0.318,0.192-0.416,0.343
			s-0.146,0.317-0.146,0.501c0,0.281,0.106,0.516,0.319,0.703s0.524,0.281,0.935,0.281c0.406,0,0.768-0.089,1.084-0.267
			s0.549-0.421,0.697-0.729c0.113-0.238,0.17-0.59,0.17-1.055V101.001z"/>
		<path d="M163.273,104.124v-8.59h1.055v8.59H163.273z"/>
		<path d="M184.642,101.364l1.072-0.094c0.051,0.43,0.169,0.782,0.354,1.058s0.474,0.498,0.864,0.668s0.83,0.255,1.318,0.255
			c0.434,0,0.816-0.064,1.148-0.193s0.579-0.306,0.741-0.53s0.243-0.47,0.243-0.735c0-0.27-0.078-0.505-0.234-0.706
			s-0.414-0.37-0.773-0.507c-0.23-0.09-0.74-0.229-1.529-0.419s-1.342-0.368-1.658-0.536c-0.41-0.215-0.716-0.481-0.917-0.8
			s-0.302-0.675-0.302-1.069c0-0.434,0.123-0.839,0.369-1.216s0.605-0.663,1.078-0.858s0.998-0.293,1.576-0.293
			c0.637,0,1.198,0.103,1.685,0.308s0.86,0.507,1.122,0.905s0.402,0.85,0.422,1.354l-1.09,0.082
			c-0.059-0.543-0.257-0.953-0.595-1.23s-0.837-0.416-1.497-0.416c-0.688,0-1.188,0.126-1.503,0.378s-0.472,0.556-0.472,0.911
			c0,0.309,0.111,0.563,0.334,0.762c0.219,0.199,0.79,0.403,1.714,0.612s1.558,0.392,1.901,0.548c0.5,0.23,0.869,0.522,1.107,0.876
			s0.357,0.761,0.357,1.222c0,0.457-0.131,0.888-0.393,1.292s-0.638,0.719-1.128,0.943s-1.042,0.337-1.655,0.337
			c-0.777,0-1.429-0.113-1.954-0.34c-0.525-0.227-0.937-0.567-1.236-1.022S184.657,101.938,184.642,101.364z"/>
		<path d="M194.736,101.012c0-1.152,0.32-2.006,0.961-2.561c0.535-0.461,1.188-0.691,1.957-0.691c0.855,0,1.555,0.28,2.098,0.841
			s0.814,1.335,0.814,2.323c0,0.801-0.12,1.431-0.36,1.89s-0.59,0.815-1.049,1.069s-0.96,0.381-1.503,0.381
			c-0.871,0-1.575-0.279-2.112-0.838S194.736,102.063,194.736,101.012z M195.82,101.012c0,0.797,0.174,1.394,0.521,1.79
			s0.785,0.595,1.313,0.595c0.523,0,0.959-0.199,1.307-0.598s0.521-1.006,0.521-1.822c0-0.77-0.175-1.353-0.524-1.749
			s-0.784-0.595-1.304-0.595c-0.527,0-0.965,0.197-1.313,0.592S195.82,100.215,195.82,101.012z"/>
		<path d="M204.012,104.124v-8.59h1.055v8.59H204.012z"/>
		<path d="M213.011,104.124v-0.914c-0.484,0.703-1.143,1.055-1.975,1.055c-0.367,0-0.71-0.07-1.028-0.211s-0.555-0.317-0.709-0.53
			s-0.263-0.474-0.325-0.782c-0.043-0.207-0.064-0.535-0.064-0.984v-3.855h1.055v3.451c0,0.551,0.021,0.922,0.064,1.113
			c0.066,0.277,0.207,0.495,0.422,0.653s0.48,0.237,0.797,0.237s0.613-0.081,0.891-0.243s0.474-0.383,0.589-0.662
			s0.173-0.685,0.173-1.216v-3.334h1.055v6.223H213.011z"/>
		<path d="M220.142,103.18l0.152,0.932c-0.297,0.063-0.563,0.094-0.797,0.094c-0.383,0-0.68-0.061-0.891-0.182
			s-0.359-0.28-0.445-0.478s-0.129-0.612-0.129-1.245v-3.58h-0.773v-0.82h0.773V96.36l1.049-0.633v2.174h1.061v0.82h-1.061v3.639
			c0,0.301,0.019,0.494,0.056,0.58c0.037,0.086,0.098,0.154,0.182,0.205s0.204,0.076,0.36,0.076
			C219.796,103.221,219.95,103.208,220.142,103.18z"/>
		<path d="M223.41,96.747v-1.213h1.055v1.213H223.41z M223.41,104.124v-6.223h1.055v6.223H223.41z"/>
		<path d="M227.91,101.012c0-1.152,0.32-2.006,0.961-2.561c0.535-0.461,1.188-0.691,1.957-0.691c0.855,0,1.555,0.28,2.098,0.841
			s0.814,1.335,0.814,2.323c0,0.801-0.12,1.431-0.36,1.89s-0.59,0.815-1.049,1.069s-0.96,0.381-1.503,0.381
			c-0.871,0-1.575-0.279-2.112-0.838S227.91,102.063,227.91,101.012z M228.994,101.012c0,0.797,0.174,1.394,0.521,1.79
			s0.785,0.595,1.313,0.595c0.523,0,0.959-0.199,1.307-0.598s0.521-1.006,0.521-1.822c0-0.77-0.175-1.353-0.524-1.749
			s-0.784-0.595-1.304-0.595c-0.527,0-0.965,0.197-1.313,0.592S228.994,100.215,228.994,101.012z"/>
		<path d="M237.209,104.124v-6.223h0.949v0.885c0.457-0.684,1.117-1.025,1.98-1.025c0.375,0,0.72,0.067,1.034,0.202
			s0.55,0.312,0.706,0.53s0.266,0.479,0.328,0.779c0.039,0.195,0.059,0.537,0.059,1.025v3.826h-1.055v-3.785
			c0-0.43-0.041-0.751-0.123-0.964s-0.228-0.383-0.437-0.51s-0.454-0.19-0.735-0.19c-0.449,0-0.837,0.143-1.163,0.428
			s-0.489,0.826-0.489,1.623v3.398H237.209z"/>
		<path d="M245.692,102.266l1.043-0.164c0.059,0.418,0.222,0.738,0.489,0.961c0.268,0.223,0.642,0.334,1.122,0.334
			c0.484,0,0.844-0.099,1.078-0.296s0.352-0.429,0.352-0.694c0-0.238-0.104-0.426-0.311-0.563c-0.145-0.094-0.504-0.213-1.078-0.357
			c-0.773-0.195-1.31-0.364-1.608-0.507s-0.525-0.34-0.68-0.592c-0.154-0.252-0.231-0.53-0.231-0.835
			c0-0.277,0.063-0.534,0.19-0.771s0.3-0.433,0.519-0.589c0.164-0.121,0.388-0.224,0.671-0.308s0.587-0.126,0.911-0.126
			c0.488,0,0.917,0.07,1.286,0.211s0.642,0.331,0.817,0.571s0.297,0.562,0.363,0.964l-1.031,0.141
			c-0.047-0.32-0.183-0.57-0.407-0.75s-0.542-0.27-0.952-0.27c-0.484,0-0.83,0.08-1.037,0.24s-0.311,0.348-0.311,0.563
			c0,0.137,0.043,0.26,0.129,0.369c0.086,0.113,0.221,0.207,0.404,0.281c0.105,0.039,0.416,0.129,0.932,0.27
			c0.746,0.199,1.267,0.362,1.562,0.489s0.526,0.312,0.694,0.554s0.252,0.543,0.252,0.902c0,0.352-0.103,0.683-0.308,0.993
			s-0.501,0.551-0.888,0.721s-0.824,0.255-1.313,0.255c-0.809,0-1.425-0.168-1.849-0.504S245.81,102.926,245.692,102.266z"/>
	</g>
	<g>
		<g>
			<path style="fill:#EC008C;" d="M183.204,50.084c-0.097-0.29-24.949-25.467-30.6-27.122c-11.378-3.336-27.682,4.126-27.884,26.036
				c-0.004,0.494,0.006,0.987,0.026,1.482h58.115C183.078,50.231,183.204,50.084,183.204,50.084z"/>
			<linearGradient id="SVGID_1_" gradientUnits="userSpaceOnUse" x1="153.9616" y1="23.6152" x2="153.9616" y2="49.0646">
				<stop  offset="0" style="stop-color:#FFFFFF"/>
				<stop  offset="0.1102" style="stop-color:#FBCBE8"/>
				<stop  offset="0.239" style="stop-color:#F796D0"/>
				<stop  offset="0.3696" style="stop-color:#F468BB"/>
				<stop  offset="0.4992" style="stop-color:#F143AA"/>
				<stop  offset="0.6276" style="stop-color:#EF259D"/>
				<stop  offset="0.7546" style="stop-color:#ED1193"/>
				<stop  offset="0.8795" style="stop-color:#EC048E"/>
				<stop  offset="1" style="stop-color:#EC008C"/>
			</linearGradient>
			<path style="opacity:0.5;fill:url(#SVGID_1_);" d="M180.28,48.709c-0.088-0.261-22.454-22.92-27.54-24.41
				c-10.24-3.002-24.914,3.714-25.095,23.432c-0.004,0.445,0.005,0.889,0.024,1.334h52.304
				C180.166,48.842,180.28,48.709,180.28,48.709z"/>
		</g>
		<g>
			<path style="fill:#FFF200;" d="M221.949,23.06c-9.843,3.409-30.406,27.385-30.406,27.385c0.001,0.004,0.021,0.025,0.028,0.034
				h58.437C249.567,34.342,235.752,18.274,221.949,23.06z"/>
			<linearGradient id="SVGID_2_" gradientUnits="userSpaceOnUse" x1="220.7758" y1="23.6155" x2="220.7758" y2="49.0646">
				<stop  offset="0" style="stop-color:#FFFFFF"/>
				<stop  offset="0.0259" style="stop-color:#FFFEF8"/>
				<stop  offset="0.2923" style="stop-color:#FDF8B2"/>
				<stop  offset="0.5323" style="stop-color:#FBF37B"/>
				<stop  offset="0.7377" style="stop-color:#FAF053"/>
				<stop  offset="0.9004" style="stop-color:#F9EE3B"/>
				<stop  offset="1" style="stop-color:#F9ED32"/>
			</linearGradient>
			<path style="opacity:0.6;fill:url(#SVGID_2_);" d="M221.832,24.388c-8.858,3.068-27.365,24.647-27.365,24.647
				c0.001,0.003,0.019,0.023,0.025,0.03h52.593C246.688,34.542,234.254,20.081,221.832,24.388z"/>
		</g>
		<g>
			<path style="fill:#00AEEF;" d="M187.289,48.479c0.241-0.078,21.111-20.679,22.483-25.365c2.765-9.431-3.421-22.946-21.582-23.113
				c-13.661-0.125-27.654,11.585-23.602,23.274C167.415,31.434,187.289,48.479,187.289,48.479z"/>
			<linearGradient id="SVGID_3_" gradientUnits="userSpaceOnUse" x1="187.1393" y1="1.5722" x2="187.1393" y2="45.2028">
				<stop  offset="0" style="stop-color:#FFFFFF"/>
				<stop  offset="0.0963" style="stop-color:#D3F1FC"/>
				<stop  offset="0.2308" style="stop-color:#9CDFF9"/>
				<stop  offset="0.3664" style="stop-color:#6CD0F6"/>
				<stop  offset="0.5001" style="stop-color:#45C4F3"/>
				<stop  offset="0.6316" style="stop-color:#27BAF1"/>
				<stop  offset="0.7601" style="stop-color:#11B3F0"/>
				<stop  offset="0.8845" style="stop-color:#04AFEF"/>
				<stop  offset="1" style="stop-color:#00AEEF"/>
			</linearGradient>
			<path style="opacity:0.5;fill:url(#SVGID_3_);" d="M187.274,45.203c0.217-0.07,19-18.611,20.235-22.828
				c2.489-8.488-3.079-20.651-19.424-20.801C175.789,1.461,163.196,12,166.843,22.519C169.387,29.862,187.274,45.203,187.274,45.203
				z"/>
		</g>
	</g>
	<circle cx="87.228" cy="99.571" r="2.835"/>
	<circle cx="173.23" cy="99.571" r="2.835"/>
</g>
</svg>
